<svg width="82" height="70" viewBox="0 0 82 70" fill="#575454" xmlns="http://www.w3.org/2000/svg">
<path d="M73.2765 35.4375L81.9249 10.8672C81.9737 10.7289 82 10.5821 82 10.4297V2.33594C82 1.53763 81.2831 0.890625 80.3984 0.890625H1.60156C0.716949 0.890625 0 1.53763 0 2.33594V10.4297C0 10.5821 0.0262756 10.7289 0.0750732 10.8672L8.72351 35.4375C8.89993 35.9389 9.36414 36.3138 9.93594 36.4171L14.1482 37.1776L0.216461 58.8448C0.216461 58.8454 0.217087 58.8454 0.217087 58.846C0.0800781 59.0588 0 59.3061 0 59.5703V67.6641C0 68.4624 0.716949 69.1094 1.60156 69.1094H45.8047C46.6893 69.1094 47.4062 68.4624 47.4062 67.6641C47.4062 66.8658 46.6893 66.2188 45.8047 66.2188H3.20312V61.0156H78.7969V66.2188H58.6973C57.8127 66.2188 57.0957 66.8658 57.0957 67.6641C57.0957 68.4624 57.8127 69.1094 58.6973 69.1094H80.3984C81.2831 69.1094 82 68.4624 82 67.6641V59.5703C82 59.3061 81.9199 59.0588 81.7829 58.8454C81.7829 58.8454 81.7835 58.8454 81.7835 58.8448L67.8518 37.1776L72.0641 36.4171C72.6359 36.3143 73.1001 35.9389 73.2765 35.4375ZM3.20312 3.78125H78.7969V8.98438H74.1567C74.1517 8.98438 74.1467 8.98438 74.1417 8.98438H7.86017C7.85391 8.98438 7.84766 8.98438 7.8414 8.98438H3.20312V3.78125ZM17.8374 34.7109L12.79 19.9688H30.9102C31.7948 19.9688 32.5117 19.3217 32.5117 18.5234C32.5117 17.7251 31.7948 17.0781 30.9102 17.0781H11.8003L10.0185 11.875H71.9809L64.162 34.7109H17.8374ZM63.7422 37.6016V42.8047H18.2578V37.6016H63.7422ZM11.4906 33.75L3.79057 11.875H6.6665L14.3315 34.2627L11.4906 33.75ZM4.3824 58.125L15.0547 41.5271V43.944L8.08727 58.125H4.3824ZM11.5907 58.125L17.6979 45.6953H64.3021L70.4093 58.125H11.5907ZM77.6176 58.125H73.9127L66.9453 43.944V41.5271L77.6176 58.125ZM67.6685 34.2627L75.3335 11.875H78.2094L70.5094 33.75L67.6685 34.2627Z" fill="#575454"/>
</svg>
